<svg version="1.1" id="Layer_1" xmlns="http://www.w3.org/2000/svg" xmlns:xlink="http://www.w3.org/1999/xlink" x="0px" y="0px"
	 width="100%" viewBox="0 0 985 594" enable-background="new 0 0 985 594" xml:space="preserve">
<path fill="#FFFFFF" opacity="1.000000" stroke="none" 
	d="
M986.000000,291.000000 
	C986.000000,392.295197 986.000000,493.590363 986.000000,595.000000 
	C713.307495,595.000000 440.615021,595.000000 167.529510,594.787354 
	C167.136520,594.574768 167.081772,594.131470 167.186737,593.662109 
	C166.895340,579.480469 166.498993,565.768127 166.564514,552.036987 
	C217.190842,552.025879 267.355316,552.037964 317.519775,552.040283 
	C411.348541,552.044617 505.177338,552.043396 599.110718,552.499390 
	C599.215271,566.342285 599.215271,579.730286 599.215271,593.315796 
	C613.580933,593.315796 628.578979,593.315796 642.390015,593.315796 
	C642.390015,579.263916 642.390015,565.652832 642.568970,551.716187 
	C637.257507,537.617371 631.767090,523.844116 626.787842,510.010376 
	C646.413147,509.314758 665.604187,509.543549 684.624146,507.849945 
	C716.216797,505.036926 742.067688,490.953491 759.004272,463.627228 
	C769.940918,445.981628 779.446655,427.407349 788.901184,408.895569 
	C800.574890,386.038513 812.543640,363.421692 827.606934,342.544800 
	C836.358643,330.415527 846.925659,321.184631 861.839478,317.474121 
	C871.992493,314.948151 881.961487,311.689484 892.087402,309.043854 
	C895.356079,308.189850 898.862061,308.243561 902.123657,307.896484 
	C902.576172,309.095490 902.838318,309.533539 902.903076,309.999084 
	C904.850159,323.979736 911.538757,329.869812 925.497498,329.871735 
	C927.163696,329.871948 928.829895,329.874390 930.496094,329.871002 
	C937.703430,329.856323 940.432129,328.312073 941.657837,321.223572 
	C943.008240,313.413635 943.165283,305.397369 944.320068,297.373749 
	C954.397583,297.257416 964.002136,297.047089 973.594971,297.293365 
	C979.055298,297.433563 983.279358,295.892578 986.000000,291.000000 
z"/>
<path fill="#76C5EF" opacity="1.000000" stroke="none" 
	d="
M943.842163,297.470978 
	C943.165283,305.397369 943.008240,313.413635 941.657837,321.223572 
	C940.432129,328.312073 937.703430,329.856323 930.496094,329.871002 
	C928.829895,329.874390 927.163696,329.871948 925.497498,329.871735 
	C911.538757,329.869812 904.850159,323.979736 902.903076,309.999084 
	C902.838318,309.533539 902.576172,309.095490 902.123657,307.896484 
	C898.862061,308.243561 895.356079,308.189850 892.087402,309.043854 
	C881.961487,311.689484 871.992493,314.948151 861.839478,317.474121 
	C846.925659,321.184631 836.358643,330.415527 827.606934,342.544800 
	C812.543640,363.421692 800.574890,386.038513 788.901184,408.895569 
	C779.446655,427.407349 769.940918,445.981628 759.004272,463.627228 
	C742.067688,490.953491 716.216797,505.036926 684.624146,507.849945 
	C665.604187,509.543549 646.413147,509.314758 626.382874,509.921936 
	C624.800964,509.872925 624.135132,509.833344 623.469299,509.833344 
	C463.540497,509.829773 303.611725,509.828522 143.682922,509.836456 
	C142.186676,509.836517 140.690445,509.960907 138.716003,509.971100 
	C118.248955,509.901093 98.246651,510.326691 78.276031,509.716095 
	C65.368927,509.321503 52.510723,507.382721 39.625950,506.186066 
	C28.731598,505.174255 22.277151,498.502747 19.506769,488.741089 
	C16.342962,477.593201 13.775984,466.184479 12.138528,454.719299 
	C10.309460,441.912506 9.728339,428.921600 8.759567,415.999146 
	C7.108520,393.975922 5.520803,371.947571 4.021159,349.913544 
	C3.186481,337.649780 2.583509,325.370239 1.922042,312.622101 
	C1.926707,275.391998 1.885444,238.637619 1.871404,201.429092 
	C2.641668,183.040161 3.297828,165.101181 4.160285,147.172150 
	C4.678923,136.390518 5.264196,125.600449 6.271536,114.856560 
	C7.990406,96.523766 9.693083,78.174896 12.117751,59.927822 
	C13.794687,47.307877 15.970622,34.661404 19.224777,22.371313 
	C22.179401,11.212467 30.166588,4.390078 42.029617,2.884171 
	C44.990143,2.508359 47.957932,2.189761 51.394073,1.909269 
	C67.227715,1.958355 82.589661,1.943039 98.423828,1.963360 
	C104.043022,1.994888 109.194008,2.113662 114.335701,1.946575 
	C118.229942,1.820027 122.112335,1.328891 126.000000,1.000000 
	C259.020905,1.000000 392.041779,1.000000 525.827881,1.293384 
	C542.416504,1.703608 558.239868,1.820448 574.527954,1.940455 
	C599.648621,1.938256 624.304688,1.932890 649.432373,1.959707 
	C660.635742,1.966501 671.367493,1.941112 682.532227,1.925757 
	C695.492920,2.720798 707.366455,5.988807 717.643311,13.210866 
	C743.851196,31.628511 765.704712,53.876408 780.168823,83.078278 
	C791.597351,106.151527 803.533691,129.061096 816.770203,151.128220 
	C832.600586,177.519852 855.708740,194.982391 886.636353,200.603851 
	C891.736633,201.530884 897.030884,201.390549 902.589050,201.767471 
	C902.744690,199.202286 902.894348,197.744263 902.911987,196.284607 
	C903.044373,185.362488 907.970642,179.362534 918.901672,177.636261 
	C923.133423,176.967972 927.522461,177.217300 931.840698,177.191696 
	C939.566528,177.145889 941.796997,178.184967 943.860901,185.678543 
	C946.183472,194.111252 947.334229,202.866699 948.528564,211.514282 
	C926.567444,211.644684 905.072571,211.742554 883.229370,211.675751 
	C879.406555,211.346100 875.924438,210.947159 872.458618,211.057571 
	C858.907837,211.489166 845.716492,209.933060 832.623962,206.082840 
	C818.125122,201.819092 805.343384,195.334244 794.607422,184.380096 
	C781.859741,171.373352 772.232605,156.316864 763.845947,140.414658 
	C754.991760,123.625961 746.922974,106.424957 738.234680,89.546341 
	C730.457458,74.437454 719.059082,62.509243 704.771240,53.367744 
	C681.661621,38.582012 655.620056,33.796471 628.922241,32.178604 
	C610.673401,31.072741 592.339478,31.168623 574.042175,31.098604 
	C467.769196,30.691935 361.495819,30.387506 255.222519,30.069149 
	C237.227402,30.015242 219.231415,29.976179 201.237015,30.100664 
	C193.269836,30.155777 185.307739,30.776209 177.339630,30.896959 
	C150.713638,31.300461 124.086288,31.621460 97.458801,31.915714 
	C87.527756,32.025459 77.591057,31.808069 67.663925,32.039581 
	C55.695557,32.318699 47.052574,38.543995 43.576321,50.023647 
	C41.184643,57.921688 39.159138,66.057999 38.182186,74.232689 
	C35.470547,96.922493 32.841148,119.648705 31.215908,142.434464 
	C29.515306,166.276855 28.159779,190.206070 28.183575,214.095825 
	C28.228476,259.174835 29.331985,304.253418 30.095850,349.330475 
	C30.219505,356.627563 30.638582,363.936249 31.307682,371.203979 
	C32.734348,386.700409 33.936646,402.241577 36.129383,417.636414 
	C38.202045,432.188202 40.865494,446.713623 44.372112,460.979523 
	C46.181782,468.341705 51.908833,473.400177 59.879875,474.952179 
	C74.962242,477.888733 90.188904,478.582336 105.928375,477.866394 
	C111.000740,478.186676 115.645973,478.585541 120.299500,478.819397 
	C153.556229,480.490631 186.801926,482.482483 220.076111,483.677246 
	C253.531799,484.878601 287.015930,485.871826 320.488373,485.895081 
	C380.130432,485.936462 439.789886,485.907349 499.410248,484.530457 
	C549.667236,483.369781 599.876953,480.202911 650.115906,478.123932 
	C653.455322,477.985748 654.310852,476.171112 655.884033,473.971558 
	C667.171936,470.953552 678.238953,468.562866 688.806824,464.778412 
	C708.607849,457.687378 725.113770,446.075165 735.342224,427.009460 
	C740.297180,417.773590 744.886597,408.337341 749.989868,399.186096 
	C761.156555,379.162079 772.208557,359.060547 783.970154,339.386841 
	C791.072754,327.506287 800.909485,318.184448 814.163696,312.871033 
	C836.506287,303.914185 859.452209,297.799225 884.128967,297.113892 
	C904.358032,297.279694 924.100098,297.375336 943.842163,297.470978 
z"/>
<path fill="#FFFFFF" opacity="1.000000" stroke="none" 
	d="
M948.994690,211.481750 
	C947.334229,202.866699 946.183472,194.111252 943.860901,185.678543 
	C941.796997,178.184967 939.566528,177.145889 931.840698,177.191696 
	C927.522461,177.217300 923.133423,176.967972 918.901672,177.636261 
	C907.970642,179.362534 903.044373,185.362488 902.911987,196.284607 
	C902.894348,197.744263 902.744690,199.202286 902.589050,201.767471 
	C897.030884,201.390549 891.736633,201.530884 886.636353,200.603851 
	C855.708740,194.982391 832.600586,177.519852 816.770203,151.128220 
	C803.533691,129.061096 791.597351,106.151527 780.168823,83.078278 
	C765.704712,53.876408 743.851196,31.628511 717.643311,13.210866 
	C707.366455,5.988807 695.492920,2.720798 682.488037,1.699109 
	C682.010925,1.462428 682.000000,1.000000 682.000000,1.000000 
	C783.248047,1.000000 884.496033,1.000000 986.000000,1.000000 
	C986.000000,72.687355 986.000000,144.375015 985.667236,216.422516 
	C983.163879,212.870255 979.807190,211.464462 975.400269,211.531433 
	C966.600647,211.665192 957.796814,211.514801 948.994690,211.481750 
z"/>
<path fill="#FFFFFF" opacity="1.000000" stroke="none" 
	d="
M1.876113,313.097809 
	C2.583509,325.370239 3.186481,337.649780 4.021159,349.913544 
	C5.520803,371.947571 7.108520,393.975922 8.759567,415.999146 
	C9.728339,428.921600 10.309460,441.912506 12.138528,454.719299 
	C13.775984,466.184479 16.342962,477.593201 19.506769,488.741089 
	C22.277151,498.502747 28.731598,505.174255 39.625950,506.186066 
	C52.510723,507.382721 65.368927,509.321503 78.276031,509.716095 
	C98.246651,510.326691 118.248955,509.901093 138.635529,510.336151 
	C133.854065,523.096680 128.643051,535.422852 123.543854,547.795105 
	C123.020584,549.064758 123.166176,550.610168 123.049698,552.491211 
	C122.743134,566.622803 122.388268,580.290649 122.013870,594.218506 
	C121.996223,594.652344 121.998116,594.826172 122.000000,595.000000 
	C81.710487,595.000000 41.420975,595.000000 1.000000,595.000000 
	C1.000000,501.312469 1.000000,407.624908 1.218539,313.497498 
	C1.437078,313.057648 1.876113,313.097809 1.876113,313.097809 
z"/>
<path fill="#E67818" opacity="1.000000" stroke="none" 
	d="
M948.528564,211.514282 
	C957.796814,211.514801 966.600647,211.665192 975.400269,211.531433 
	C979.807190,211.464462 983.163879,212.870255 985.667236,216.891174 
	C986.000000,241.354233 986.000000,265.708466 986.000000,290.531342 
	C983.279358,295.892578 979.055298,297.433563 973.594971,297.293365 
	C964.002136,297.047089 954.397583,297.257416 944.320068,297.373749 
	C924.100098,297.375336 904.358032,297.279694 884.138245,296.643768 
	C883.632874,268.015808 883.605225,239.928116 883.577637,211.840439 
	C905.072571,211.742554 926.567444,211.644684 948.528564,211.514282 
M942.416748,270.742126 
	C947.221619,277.044128 952.735474,278.825958 958.895447,276.067322 
	C964.179382,273.701050 967.335266,268.122314 966.411133,262.781464 
	C965.001831,254.636536 958.224304,250.015472 950.477844,251.917709 
	C942.458923,253.886856 939.028198,261.255280 942.416748,270.742126 
M958.172668,239.115540 
	C960.457764,242.923141 963.467407,245.572983 968.255493,244.709106 
	C973.571716,243.749954 976.842834,238.911697 975.889526,233.738480 
	C975.013306,228.983810 969.744263,225.407516 965.163635,226.458496 
	C959.382751,227.784851 956.642090,232.334183 958.172668,239.115540 
M892.763367,271.149078 
	C889.134705,274.610443 887.832703,278.524628 890.584351,283.117004 
	C892.645569,286.557129 896.035095,288.861176 899.631653,287.334412 
	C902.757141,286.007629 906.171265,283.095459 907.299866,280.076996 
	C908.140198,277.829376 906.256531,273.628906 904.290710,271.487030 
	C901.395508,268.332550 897.247009,268.192322 892.763367,271.149078 
M929.304260,250.019974 
	C935.390015,248.541779 938.793396,244.012146 937.465149,239.158356 
	C936.028809,233.909241 931.991516,231.248489 926.576477,231.982056 
	C922.475647,232.537582 918.958069,236.823792 919.047791,241.155853 
	C919.149048,246.040497 922.618225,249.303116 929.304260,250.019974 
M890.515747,230.822159 
	C891.993774,234.647018 894.823853,237.315857 898.819763,236.217850 
	C901.208923,235.561340 903.984924,233.001251 904.808716,230.668747 
	C906.379578,226.221008 903.312805,222.233292 898.888245,221.555634 
	C894.261902,220.847061 890.830750,224.250107 890.515747,230.822159 
M913.342834,263.748657 
	C915.276917,267.277161 918.281921,269.359802 921.785217,266.804565 
	C923.756775,265.366547 925.472168,261.992096 925.326477,259.610870 
	C925.112427,256.111450 921.842896,254.445023 918.302246,255.004135 
	C913.850769,255.707092 912.378479,258.731537 913.342834,263.748657 
M926.158447,277.655945 
	C924.739319,281.571503 925.640320,284.729614 929.790100,285.919769 
	C933.446716,286.968445 936.896973,285.621063 937.355286,281.629486 
	C937.593872,279.551025 936.008179,276.565002 934.293701,275.117676 
	C931.448608,272.715973 928.728088,274.646027 926.158447,277.655945 
z"/>
<path fill="#FDFEFF" opacity="1.000000" stroke="none" 
	d="
M50.922382,1.844866 
	C47.957932,2.189761 44.990143,2.508359 42.029617,2.884171 
	C30.166588,4.390078 22.179401,11.212467 19.224777,22.371313 
	C15.970622,34.661404 13.794687,47.307877 12.117751,59.927822 
	C9.693083,78.174896 7.990406,96.523766 6.271536,114.856560 
	C5.264196,125.600449 4.678923,136.390518 4.160285,147.172150 
	C3.297828,165.101181 2.641668,183.040161 1.659608,201.449982 
	C1.420590,201.925018 1.000000,202.000000 1.000000,202.000000 
	C1.000000,135.116943 1.000000,68.233902 1.000000,1.000000 
	C17.352554,1.000000 33.707619,1.000000 50.516861,1.211669 
	C50.971039,1.423338 50.922382,1.844866 50.922382,1.844866 
z"/>
<path fill="#BCE3F8" opacity="1.000000" stroke="none" 
	d="
M1.000000,202.468658 
	C1.000000,202.000000 1.420590,201.925018 1.632386,201.904129 
	C1.885444,238.637619 1.926707,275.391998 1.922042,312.622101 
	C1.876113,313.097809 1.437078,313.057648 1.218539,313.028809 
	C1.000000,276.312439 1.000000,239.624878 1.000000,202.468658 
z"/>
<path fill="#C2E6F9" opacity="1.000000" stroke="none" 
	d="
M648.960754,1.927524 
	C624.304688,1.932890 599.648621,1.938256 574.505493,1.706863 
	C574.018433,1.470105 574.000000,1.000000 574.000000,1.000000 
	C598.687561,1.000000 623.375122,1.000000 648.525879,1.232066 
	C648.989075,1.464132 648.960754,1.927524 648.960754,1.927524 
z"/>
<path fill="#96D3F4" opacity="1.000000" stroke="none" 
	d="
M573.531372,1.000000 
	C574.000000,1.000000 574.018433,1.470105 574.040894,1.703696 
	C558.239868,1.820448 542.416504,1.703608 526.296509,1.293384 
	C541.687561,1.000000 557.375122,1.000000 573.531372,1.000000 
z"/>
<path fill="#CDEAFA" opacity="1.000000" stroke="none" 
	d="
M51.394073,1.909269 
	C50.922382,1.844866 50.971039,1.423338 50.985519,1.211669 
	C66.354225,1.000000 81.708458,1.000000 97.525909,1.232278 
	C97.989143,1.464557 97.951614,1.927722 97.951614,1.927722 
	C82.589661,1.943039 67.227715,1.958355 51.394073,1.909269 
z"/>
<path fill="#D3BCB5" opacity="1.000000" stroke="none" 
	d="
M122.468658,595.000000 
	C121.998116,594.826172 121.996223,594.652344 122.480194,594.220581 
	C137.671295,594.018921 152.376526,594.075195 167.081772,594.131470 
	C167.081772,594.131470 167.136520,594.574768 167.068268,594.787354 
	C152.312439,595.000000 137.624878,595.000000 122.468658,595.000000 
z"/>
<path fill="#A7DAF6" opacity="1.000000" stroke="none" 
	d="
M649.432373,1.959707 
	C648.960754,1.927524 648.989075,1.464132 648.994507,1.232066 
	C659.687561,1.000000 670.375122,1.000000 681.531372,1.000000 
	C682.000000,1.000000 682.010925,1.462428 682.055054,1.689076 
	C671.367493,1.941112 660.635742,1.966501 649.432373,1.959707 
z"/>
<path fill="#A8DBF6" opacity="1.000000" stroke="none" 
	d="
M98.423828,1.963360 
	C97.951614,1.927722 97.989143,1.464557 97.994568,1.232278 
	C107.020897,1.000000 116.041786,1.000000 125.531342,1.000000 
	C122.112335,1.328891 118.229942,1.820027 114.335701,1.946575 
	C109.194008,2.113662 104.043022,1.994888 98.423828,1.963360 
z"/>
<path fill="#B7673C" opacity="1.000000" stroke="none" 
	d="
M123.001389,552.027588 
	C123.166176,550.610168 123.020584,549.064758 123.543854,547.795105 
	C128.643051,535.422852 133.854065,523.096680 139.113708,510.392365 
	C140.690445,509.960907 142.186676,509.836517 143.682922,509.836456 
	C303.611725,509.828522 463.540497,509.829773 623.469299,509.833344 
	C624.135132,509.833344 624.800964,509.872925 625.871704,509.982483 
	C631.767090,523.844116 637.257507,537.617371 642.145142,551.705872 
	C627.363647,552.028931 613.184875,552.036682 599.006104,552.044434 
	C505.177338,552.043396 411.348541,552.044617 317.519775,552.040283 
	C267.355316,552.037964 217.190842,552.025879 166.090057,552.018372 
	C151.102936,552.021545 137.052170,552.024597 123.001389,552.027588 
z"/>
<path fill="#915647" opacity="1.000000" stroke="none" 
	d="
M599.110718,552.499390 
	C613.184875,552.036682 627.363647,552.028931 641.966187,552.031494 
	C642.390015,565.652832 642.390015,579.263916 642.390015,593.315796 
	C628.578979,593.315796 613.580933,593.315796 599.215271,593.315796 
	C599.215271,579.730286 599.215271,566.342285 599.110718,552.499390 
z"/>
<path fill="#8F5545" opacity="1.000000" stroke="none" 
	d="
M123.049698,552.491211 
	C137.052170,552.024597 151.102936,552.021545 165.628174,552.037231 
	C166.498993,565.768127 166.895340,579.480469 167.186737,593.662109 
	C152.376526,594.075195 137.671295,594.018921 122.499725,593.960571 
	C122.388268,580.290649 122.743134,566.622803 123.049698,552.491211 
z"/>
<path fill="#BBE3F8" opacity="1.000000" stroke="none" 
	d="
M883.229370,211.675751 
	C883.605225,239.928116 883.632874,268.015808 883.651245,296.573608 
	C859.452209,297.799225 836.506287,303.914185 814.163696,312.871033 
	C800.909485,318.184448 791.072754,327.506287 783.970154,339.386841 
	C772.208557,359.060547 761.156555,379.162079 749.989868,399.186096 
	C744.886597,408.337341 740.297180,417.773590 735.342224,427.009460 
	C725.113770,446.075165 708.607849,457.687378 688.806824,464.778412 
	C678.238953,468.562866 667.171936,470.953552 656.014282,473.607300 
	C662.300842,458.716309 668.944946,444.210022 675.495422,429.661591 
	C683.883728,411.031494 692.729370,392.580444 700.308044,373.624481 
	C703.881897,364.685364 704.961792,354.749146 707.330139,344.584900 
	C708.849976,344.584900 711.148254,344.713104 713.427734,344.559967 
	C719.383240,344.159851 721.918823,340.718994 721.703735,333.530731 
	C721.529541,327.708862 719.616760,326.022034 713.125916,326.000305 
	C696.478821,325.944611 679.831665,325.896057 663.167969,325.388000 
	C663.151306,297.385529 663.151306,269.839722 663.151306,241.855865 
	C656.429565,241.855865 650.321838,241.855865 644.081787,241.411865 
	C643.949402,208.388290 643.949402,175.808701 643.949402,143.371109 
	C642.462158,143.109436 641.973755,142.948044 641.485474,142.948334 
	C596.324158,142.976059 551.162842,143.016113 505.540131,142.964462 
	C444.572418,142.873566 384.066132,142.873566 323.141998,142.873566 
	C323.141998,145.424149 323.141968,147.223190 323.141968,149.022217 
	C323.141968,177.981720 323.149353,206.941238 323.125885,235.900726 
	C323.124268,237.886215 322.891785,239.871506 322.317078,241.821686 
	C317.111115,241.786499 312.354767,241.786499 307.130402,241.786499 
	C307.130402,270.304596 307.130402,298.083618 306.656982,325.919373 
	C300.136658,325.942993 294.089691,325.909851 288.009766,325.417480 
	C287.967346,306.973938 288.255157,288.981232 287.746979,271.011047 
	C287.613922,266.305359 285.853790,261.148651 283.363373,257.110229 
	C278.193146,248.726379 269.469330,246.165070 260.137634,246.089462 
	C237.492249,245.905945 214.844681,245.992645 192.167282,245.505249 
	C192.125290,227.241348 192.199646,209.442001 192.067047,191.644211 
	C191.999405,182.565323 186.148514,175.961639 178.180176,175.918015 
	C162.880661,175.834244 147.579987,175.963745 132.310852,175.536621 
	C132.365814,146.419083 132.318024,117.769318 132.479874,89.120728 
	C132.508881,83.983376 129.664398,82.908096 125.547714,82.833763 
	C120.137733,82.736069 118.081032,84.384430 118.079453,89.038353 
	C118.069664,118.021072 118.104156,147.003815 117.675537,175.946228 
	C105.669662,175.029739 101.844467,180.430099 99.237503,190.255905 
	C98.698059,192.289093 98.935318,194.546280 98.930313,196.700500 
	C98.891418,213.459976 98.880867,230.219528 98.504745,247.030792 
	C84.651489,251.931259 79.959091,258.640228 79.951401,273.083496 
	C79.942039,290.656921 79.927650,308.230377 79.457062,325.875427 
	C70.014404,325.964294 61.027016,326.124390 52.047371,325.928802 
	C48.439766,325.850189 46.461521,327.523773 45.179012,330.492859 
	C42.394489,336.939056 46.727474,344.184235 53.788284,344.516083 
	C57.334629,344.682739 60.916813,344.086975 65.139679,343.789764 
	C66.345154,347.307495 67.922447,351.138153 68.976440,355.107727 
	C77.710236,388.001099 86.091568,420.991150 95.190933,453.782288 
	C97.505379,462.122864 102.007912,469.856201 105.505081,477.868561 
	C90.188904,478.582336 74.962242,477.888733 59.879875,474.952179 
	C51.908833,473.400177 46.181782,468.341705 44.372112,460.979523 
	C40.865494,446.713623 38.202045,432.188202 36.129383,417.636414 
	C33.936646,402.241577 32.734348,386.700409 31.307682,371.203979 
	C30.638582,363.936249 30.219505,356.627563 30.095850,349.330475 
	C29.331985,304.253418 28.228476,259.174835 28.183575,214.095825 
	C28.159779,190.206070 29.515306,166.276855 31.215908,142.434464 
	C32.841148,119.648705 35.470547,96.922493 38.182186,74.232689 
	C39.159138,66.057999 41.184643,57.921688 43.576321,50.023647 
	C47.052574,38.543995 55.695557,32.318699 67.663925,32.039581 
	C77.591057,31.808069 87.527756,32.025459 97.458801,31.915714 
	C124.086288,31.621460 150.713638,31.300461 177.339630,30.896959 
	C185.307739,30.776209 193.269836,30.155777 201.237015,30.100664 
	C219.231415,29.976179 237.227402,30.015242 255.222519,30.069149 
	C361.495819,30.387506 467.769196,30.691935 574.042175,31.098604 
	C592.339478,31.168623 610.673401,31.072741 628.922241,32.178604 
	C655.620056,33.796471 681.661621,38.582012 704.771240,53.367744 
	C719.059082,62.509243 730.457458,74.437454 738.234680,89.546341 
	C746.922974,106.424957 754.991760,123.625961 763.845947,140.414658 
	C772.232605,156.316864 781.859741,171.373352 794.607422,184.380096 
	C805.343384,195.334244 818.125122,201.819092 832.623962,206.082840 
	C845.716492,209.933060 858.907837,211.489166 872.458618,211.057571 
	C875.924438,210.947159 879.406555,211.346100 883.229370,211.675751 
z"/>
<path fill="#3C4E57" opacity="1.000000" stroke="none" 
	d="
M663.184570,325.844604 
	C679.831665,325.896057 696.478821,325.944611 713.125916,326.000305 
	C719.616760,326.022034 721.529541,327.708862 721.703735,333.530731 
	C721.918823,340.718994 719.383240,344.159851 713.427734,344.559967 
	C711.148254,344.713104 708.849976,344.584900 707.330139,344.584900 
	C704.961792,354.749146 703.881897,364.685364 700.308044,373.624481 
	C692.729370,392.580444 683.883728,411.031494 675.495422,429.661591 
	C668.944946,444.210022 662.300842,458.716309 655.568115,473.605560 
	C654.310852,476.171112 653.455322,477.985748 650.115906,478.123932 
	C599.876953,480.202911 549.667236,483.369781 499.410248,484.530457 
	C439.789886,485.907349 380.130432,485.936462 320.488373,485.895081 
	C287.015930,485.871826 253.531799,484.878601 220.076111,483.677246 
	C186.801926,482.482483 153.556229,480.490631 120.299500,478.819397 
	C115.645973,478.585541 111.000740,478.186676 105.928375,477.866394 
	C102.007912,469.856201 97.505379,462.122864 95.190933,453.782288 
	C86.091568,420.991150 77.710236,388.001099 68.976440,355.107727 
	C67.922447,351.138153 66.345154,347.307495 65.139679,343.789764 
	C60.916813,344.086975 57.334629,344.682739 53.788284,344.516083 
	C46.727474,344.184235 42.394489,336.939056 45.179012,330.492859 
	C46.461521,327.523773 48.439766,325.850189 52.047371,325.928802 
	C61.027016,326.124390 70.014404,325.964294 79.926804,325.949768 
	C119.464630,325.967926 158.074356,326.003479 196.684067,325.992371 
	C227.136963,325.983612 257.589844,325.917419 288.042755,325.876709 
	C294.089691,325.909851 300.136658,325.942993 307.108643,325.972595 
	C332.678650,325.982117 357.323639,325.995178 382.056152,326.418884 
	C383.554382,330.977844 383.977356,335.903229 386.532562,339.151215 
	C406.282898,364.256439 426.449677,389.033966 446.476959,413.921448 
	C450.274414,418.640503 455.055725,420.816010 461.220551,420.791473 
	C493.011719,420.665222 524.804260,420.633301 556.594971,420.811188 
	C563.546875,420.850067 568.612549,418.281647 572.878662,412.934723 
	C591.971375,389.004852 611.138062,365.132874 630.461182,341.388916 
	C634.210876,336.781311 636.639038,332.009369 636.783936,326.017029 
	C645.882507,325.958740 654.533569,325.901672 663.184570,325.844604 
M288.607086,386.732147 
	C282.365112,388.511566 278.264587,392.675873 276.022888,398.589874 
	C272.894257,406.843750 272.961609,415.243134 276.074982,423.468689 
	C279.955231,433.720398 288.760437,439.140900 298.847351,436.782990 
	C303.299011,435.742432 307.287933,432.722534 311.607300,430.540405 
	C311.662476,430.792114 311.828979,431.390198 311.921143,431.999481 
	C312.452728,435.513123 314.431122,437.307678 318.036224,437.170685 
	C321.507477,437.038818 323.041840,434.931427 323.433685,431.752686 
	C323.616394,430.270355 323.752350,428.771118 323.754303,427.279327 
	C323.776367,410.447845 323.783600,393.616302 323.746185,376.784882 
	C323.742126,374.965637 324.031952,372.726410 323.121582,371.427917 
	C321.795044,369.535828 319.480713,367.118042 317.628296,367.151855 
	C315.734528,367.186523 312.992828,369.567963 312.243561,371.538605 
	C311.233215,374.195801 311.712250,377.441498 311.663116,380.436462 
	C311.600250,384.266357 311.647858,388.098083 311.647858,393.453491 
	C304.580872,386.112305 297.368164,384.766937 288.607086,386.732147 
M142.133682,371.256378 
	C141.990143,383.582520 141.792908,395.908356 141.722763,408.234924 
	C141.679153,415.898376 141.755966,423.564484 141.921539,431.226318 
	C142.001602,434.930298 143.941116,437.221893 147.827621,437.172974 
	C151.572784,437.125824 153.622360,434.939911 154.061752,431.321106 
	C154.281570,429.510620 154.474670,427.610229 154.169647,425.838348 
	C153.100311,419.626587 156.786285,416.473907 161.449722,413.581909 
	C165.526657,420.166687 169.387054,426.581329 173.461044,432.857300 
	C174.498856,434.456055 176.062515,436.475342 177.657272,436.756897 
	C179.630188,437.105255 183.121964,436.437531 183.744125,435.144104 
	C184.783051,432.984283 185.034637,429.442261 183.916214,427.425812 
	C179.589966,419.625671 174.591263,412.198517 170.001923,404.885590 
	C173.579880,401.191193 176.919067,397.937164 180.021149,394.470886 
	C182.029175,392.227112 182.557053,389.039978 179.903091,387.493073 
	C177.941940,386.349976 174.229736,386.156708 172.394974,387.300507 
	C169.090897,389.360138 166.617538,392.747620 163.782135,395.565277 
	C160.800720,398.528046 157.801758,401.473145 154.119354,405.108185 
	C154.119354,393.918518 154.371017,383.778320 153.926254,373.668762 
	C153.826477,371.400574 151.777954,368.332886 149.758743,367.247040 
	C146.907318,365.713654 143.934647,367.173889 142.133682,371.256378 
M218.735062,415.498932 
	C218.817734,420.985840 218.407562,426.549011 219.238998,431.920013 
	C219.547867,433.915192 222.509354,436.374603 224.718170,436.994873 
	C227.993195,437.914490 230.397873,435.624878 231.016769,432.193634 
	C231.367874,430.247009 231.302841,428.219849 231.362015,426.227051 
	C231.564316,419.413330 231.484161,412.579651 231.996735,405.790161 
	C232.487869,399.284637 237.201431,395.290985 243.235352,395.577301 
	C248.643204,395.833984 250.804596,398.552582 251.055313,406.107391 
	C251.325500,414.249115 251.185608,422.405060 251.492142,430.544708 
	C251.637756,434.411285 253.411682,437.336670 257.920471,437.193817 
	C262.434143,437.050781 263.911407,434.002380 263.940369,430.141907 
	C264.013947,420.328064 264.179047,410.500641 263.764587,400.701599 
	C263.387268,391.780334 257.176361,386.276581 248.196091,385.708618 
	C241.322556,385.273956 235.842682,388.032806 230.951950,393.436676 
	C230.053543,388.422394 228.483688,385.035645 223.381989,385.921997 
	C218.289383,386.806763 218.828812,390.951447 218.768494,394.535339 
	C218.656540,401.188293 218.735504,407.844513 218.735062,415.498932 
M195.675629,436.047791 
	C201.490234,438.322662 205.575165,436.588806 205.726990,430.978607 
	C206.082275,417.849609 206.088638,404.696564 205.699997,391.569122 
	C205.544006,386.300598 199.463364,383.602722 195.867310,386.949036 
	C194.274597,388.431183 193.245178,391.279327 193.197174,393.533691 
	C192.942230,405.504761 192.988785,417.485535 193.170334,429.459351 
	C193.201019,431.483643 194.398880,433.490204 195.675629,436.047791 
M193.514130,375.736755 
	C195.288177,379.260620 198.410599,380.833771 201.691635,378.997406 
	C203.664597,377.893127 205.642960,374.701843 205.514420,372.575684 
	C205.403397,370.739044 202.601654,368.219086 200.490402,367.529968 
	C196.417542,366.200592 193.376053,369.686035 193.514130,375.736755 
z"/>
<path fill="#73625A" opacity="1.000000" stroke="none" 
	d="
M942.227661,270.392944 
	C939.028198,261.255280 942.458923,253.886856 950.477844,251.917709 
	C958.224304,250.015472 965.001831,254.636536 966.411133,262.781464 
	C967.335266,268.122314 964.179382,273.701050 958.895447,276.067322 
	C952.735474,278.825958 947.221619,277.044128 942.227661,270.392944 
z"/>
<path fill="#746359" opacity="1.000000" stroke="none" 
	d="
M958.074341,238.752533 
	C956.642090,232.334183 959.382751,227.784851 965.163635,226.458496 
	C969.744263,225.407516 975.013306,228.983810 975.889526,233.738480 
	C976.842834,238.911697 973.571716,243.749954 968.255493,244.709106 
	C963.467407,245.572983 960.457764,242.923141 958.074341,238.752533 
z"/>
<path fill="#756359" opacity="1.000000" stroke="none" 
	d="
M893.095459,270.957031 
	C897.247009,268.192322 901.395508,268.332550 904.290710,271.487030 
	C906.256531,273.628906 908.140198,277.829376 907.299866,280.076996 
	C906.171265,283.095459 902.757141,286.007629 899.631653,287.334412 
	C896.035095,288.861176 892.645569,286.557129 890.584351,283.117004 
	C887.832703,278.524628 889.134705,274.610443 893.095459,270.957031 
z"/>
<path fill="#746359" opacity="1.000000" stroke="none" 
	d="
M928.900513,250.031006 
	C922.618225,249.303116 919.149048,246.040497 919.047791,241.155853 
	C918.958069,236.823792 922.475647,232.537582 926.576477,231.982056 
	C931.991516,231.248489 936.028809,233.909241 937.465149,239.158356 
	C938.793396,244.012146 935.390015,248.541779 928.900513,250.031006 
z"/>
<path fill="#746359" opacity="1.000000" stroke="none" 
	d="
M890.391541,230.464081 
	C890.830750,224.250107 894.261902,220.847061 898.888245,221.555634 
	C903.312805,222.233292 906.379578,226.221008 904.808716,230.668747 
	C903.984924,233.001251 901.208923,235.561340 898.819763,236.217850 
	C894.823853,237.315857 891.993774,234.647018 890.391541,230.464081 
z"/>
<path fill="#766358" opacity="1.000000" stroke="none" 
	d="
M913.210205,263.371307 
	C912.378479,258.731537 913.850769,255.707092 918.302246,255.004135 
	C921.842896,254.445023 925.112427,256.111450 925.326477,259.610870 
	C925.472168,261.992096 923.756775,265.366547 921.785217,266.804565 
	C918.281921,269.359802 915.276917,267.277161 913.210205,263.371307 
z"/>
<path fill="#766358" opacity="1.000000" stroke="none" 
	d="
M926.353882,277.341675 
	C928.728088,274.646027 931.448608,272.715973 934.293701,275.117676 
	C936.008179,276.565002 937.593872,279.551025 937.355286,281.629486 
	C936.896973,285.621063 933.446716,286.968445 929.790100,285.919769 
	C925.640320,284.729614 924.739319,281.571503 926.353882,277.341675 
z"/>
<path fill="#A4B7BE" opacity="1.000000" stroke="none" 
	d="
M288.009766,325.417480 
	C257.589844,325.917419 227.136963,325.983612 196.684067,325.992371 
	C158.074356,326.003479 119.464630,325.967926 80.385178,325.878174 
	C79.927650,308.230377 79.942039,290.656921 79.951401,273.083496 
	C79.959091,258.640228 84.651489,251.931259 98.941742,247.027130 
	C102.845619,246.650558 105.954880,246.059891 109.065918,246.050354 
	C136.776428,245.965378 164.487259,245.983047 192.197983,245.970474 
	C214.844681,245.992645 237.492249,245.905945 260.137634,246.089462 
	C269.469330,246.165070 278.193146,248.726379 283.363373,257.110229 
	C285.853790,261.148651 287.613922,266.305359 287.746979,271.011047 
	C288.255157,288.981232 287.967346,306.973938 288.009766,325.417480 
M116.549881,282.871582 
	C135.037140,282.871460 153.524414,282.886719 172.011642,282.861237 
	C177.123596,282.854187 178.993408,281.104401 178.925720,276.606812 
	C178.857971,272.105743 176.938095,270.301422 171.951797,270.294830 
	C151.632492,270.267975 131.313126,270.267120 110.993813,270.293610 
	C105.183006,270.301178 103.798103,271.589172 103.818542,276.660797 
	C103.838799,281.686279 105.192650,282.846313 111.075470,282.870636 
	C112.574409,282.876831 114.073395,282.871460 116.549881,282.871582 
M112.741562,303.969574 
	C133.027191,303.969543 153.312836,303.980591 173.598450,303.961884 
	C178.860794,303.957031 180.170990,302.567139 180.232529,297.672943 
	C180.289795,293.118500 178.138245,291.748840 173.736771,291.785370 
	C153.120026,291.956299 132.500214,291.960327 111.883583,291.781769 
	C107.514801,291.743927 105.139908,293.186707 105.154213,297.585419 
	C105.168137,301.866760 106.886124,304.667664 112.741562,303.969574 
z"/>
<path fill="#0894A3" opacity="1.000000" stroke="none" 
	d="
M322.766693,241.856873 
	C322.891785,239.871506 323.124268,237.886215 323.125885,235.900726 
	C323.149353,206.941238 323.141968,177.981720 323.141968,149.022217 
	C323.141968,147.223190 323.141998,145.424149 323.141998,142.873566 
	C384.066132,142.873566 444.572418,142.873566 505.541260,143.428894 
	C506.007477,154.045776 506.011078,164.107330 505.721069,174.370743 
	C504.484680,174.884979 503.495605,175.100113 502.605896,175.523865 
	C472.819489,189.710800 443.026978,203.885086 413.279663,218.153656 
	C408.353088,220.516724 405.492554,224.717865 404.186218,230.001648 
	C403.197083,234.002350 402.157654,237.990616 400.663147,241.984955 
	C374.379333,241.942642 348.573029,241.899765 322.766693,241.856873 
z"/>
<path fill="#01B7A6" opacity="1.000000" stroke="none" 
	d="
M506.014679,174.168900 
	C506.011078,164.107330 506.007477,154.045776 506.002686,143.519775 
	C551.162842,143.016113 596.324158,142.976059 641.485474,142.948334 
	C641.973755,142.948044 642.462158,143.109436 643.949402,143.371109 
	C643.949402,175.808701 643.949402,208.388290 643.598999,241.455673 
	C634.562683,241.959305 625.876892,241.975143 617.052795,241.617523 
	C616.343750,238.990097 615.505310,236.766129 615.249023,234.476974 
	C614.196350,225.074051 608.935730,219.592041 600.411743,215.664810 
	C573.872498,203.437424 547.669495,190.481705 521.177307,178.149521 
	C516.515564,175.979462 511.088379,175.453903 506.014679,174.168900 
z"/>
<path fill="#01B7A5" opacity="1.000000" stroke="none" 
	d="
M322.317078,241.821686 
	C348.573029,241.899765 374.379333,241.942642 400.665039,242.398224 
	C394.752502,270.543365 388.360565,298.275818 381.968597,326.008270 
	C357.323639,325.995178 332.678650,325.982117 307.582031,325.915833 
	C307.130402,298.083618 307.130402,270.304596 307.130402,241.786499 
	C312.354767,241.786499 317.111115,241.786499 322.317078,241.821686 
z"/>
<path fill="#88A1A8" opacity="1.000000" stroke="none" 
	d="
M192.167282,245.505249 
	C164.487259,245.983047 136.776428,245.965378 109.065918,246.050354 
	C105.954880,246.059891 102.845619,246.650558 99.298538,246.975403 
	C98.880867,230.219528 98.891418,213.459976 98.930313,196.700500 
	C98.935318,194.546280 98.698059,192.289093 99.237503,190.255905 
	C101.844467,180.430099 105.669662,175.029739 118.127090,175.882141 
	C123.444649,175.907181 127.862213,175.955978 132.279785,176.004776 
	C147.579987,175.963745 162.880661,175.834244 178.180176,175.918015 
	C186.148514,175.961639 191.999405,182.565323 192.067047,191.644211 
	C192.199646,209.442001 192.125290,227.241348 192.167282,245.505249 
z"/>
<path fill="#0894A3" opacity="1.000000" stroke="none" 
	d="
M617.191040,241.990997 
	C625.876892,241.975143 634.562683,241.959305 643.731323,241.899658 
	C650.321838,241.855865 656.429565,241.855865 663.151306,241.855865 
	C663.151306,269.839722 663.151306,297.385529 663.167969,325.388000 
	C654.533569,325.901672 645.882507,325.958740 636.673218,325.615601 
	C629.806946,297.473969 623.498962,269.732483 617.191040,241.990997 
z"/>
<path fill="#3D4F58" opacity="1.000000" stroke="none" 
	d="
M132.310852,175.536621 
	C127.862213,175.955978 123.444649,175.907181 118.575523,175.922470 
	C118.104156,147.003815 118.069664,118.021072 118.079453,89.038353 
	C118.081032,84.384430 120.137733,82.736069 125.547714,82.833763 
	C129.664398,82.908096 132.508881,83.983376 132.479874,89.120728 
	C132.318024,117.769318 132.365814,146.419083 132.310852,175.536621 
z"/>
<path fill="#F5F8FA" opacity="1.000000" stroke="none" 
	d="
M617.052734,241.617508 
	C623.498962,269.732483 629.806946,297.473969 636.225586,325.616882 
	C636.639038,332.009369 634.210876,336.781311 630.461182,341.388916 
	C611.138062,365.132874 591.971375,389.004852 572.878662,412.934723 
	C568.612549,418.281647 563.546875,420.850067 556.594971,420.811188 
	C524.804260,420.633301 493.011719,420.665222 461.220551,420.791473 
	C455.055725,420.816010 450.274414,418.640503 446.476959,413.921448 
	C426.449677,389.033966 406.282898,364.256439 386.532562,339.151215 
	C383.977356,335.903229 383.554382,330.977844 382.056152,326.418884 
	C388.360565,298.275818 394.752502,270.543365 401.142517,242.397659 
	C402.157654,237.990616 403.197083,234.002350 404.186218,230.001648 
	C405.492554,224.717865 408.353088,220.516724 413.279663,218.153656 
	C443.026978,203.885086 472.819489,189.710800 502.605896,175.523865 
	C503.495605,175.100113 504.484680,174.884979 505.721069,174.370743 
	C511.088379,175.453903 516.515564,175.979462 521.177307,178.149521 
	C547.669495,190.481705 573.872498,203.437424 600.411743,215.664810 
	C608.935730,219.592041 614.196350,225.074051 615.249023,234.476974 
	C615.505310,236.766129 616.343750,238.990097 617.052734,241.617508 
M394.046326,302.645264 
	C393.660461,304.432983 393.305389,306.228027 392.884125,308.007355 
	C387.318298,331.516113 385.987488,328.305939 401.891968,347.959320 
	C417.501190,367.247742 433.025940,386.604584 448.554169,405.958374 
	C452.359436,410.701019 456.755493,414.090179 463.243225,414.080658 
	C493.727570,414.035889 524.212158,414.060516 554.696533,414.112122 
	C560.636230,414.122192 565.306335,411.714172 568.958069,407.169617 
	C587.629578,383.932983 606.246155,360.652039 624.981140,337.466705 
	C629.100281,332.369141 630.071533,326.926697 628.601501,320.643707 
	C622.010864,292.475800 615.438110,264.302582 609.120239,236.072784 
	C607.528870,228.962265 603.829956,224.257629 597.269958,221.170044 
	C570.935608,208.775223 544.651001,196.272186 518.450623,183.597107 
	C512.252808,180.598724 506.576019,180.436798 500.352051,183.444351 
	C473.546082,196.397476 446.646576,209.157135 419.771271,221.966599 
	C414.467133,224.494690 411.181610,228.497818 409.853424,234.292084 
	C404.690704,256.814636 399.420563,279.312561 394.046326,302.645264 
z"/>
<path fill="#FAFAFB" opacity="1.000000" stroke="none" 
	d="
M288.996216,386.574738 
	C297.368164,384.766937 304.580872,386.112305 311.647858,393.453491 
	C311.647858,388.098083 311.600250,384.266357 311.663116,380.436462 
	C311.712250,377.441498 311.233215,374.195801 312.243561,371.538605 
	C312.992828,369.567963 315.734528,367.186523 317.628296,367.151855 
	C319.480713,367.118042 321.795044,369.535828 323.121582,371.427917 
	C324.031952,372.726410 323.742126,374.965637 323.746185,376.784882 
	C323.783600,393.616302 323.776367,410.447845 323.754303,427.279327 
	C323.752350,428.771118 323.616394,430.270355 323.433685,431.752686 
	C323.041840,434.931427 321.507477,437.038818 318.036224,437.170685 
	C314.431122,437.307678 312.452728,435.513123 311.921143,431.999481 
	C311.828979,431.390198 311.662476,430.792114 311.607300,430.540405 
	C307.287933,432.722534 303.299011,435.742432 298.847351,436.782990 
	C288.760437,439.140900 279.955231,433.720398 276.074982,423.468689 
	C272.961609,415.243134 272.894257,406.843750 276.022888,398.589874 
	C278.264587,392.675873 282.365112,388.511566 288.996216,386.574738 
M287.008209,415.940186 
	C287.361542,417.214111 287.591949,418.538422 288.089935,419.753052 
	C290.022064,424.465637 293.413666,427.315613 298.664734,427.358948 
	C303.911163,427.402283 307.554504,424.708130 309.349518,419.934662 
	C311.863251,413.250061 311.778381,406.522949 307.820251,400.363373 
	C303.101959,393.020813 292.833191,393.240662 289.263000,401.143250 
	C287.391083,405.286774 287.646332,410.391266 287.008209,415.940186 
z"/>
<path fill="#FDFDFD" opacity="1.000000" stroke="none" 
	d="
M142.286407,370.854004 
	C143.934647,367.173889 146.907318,365.713654 149.758743,367.247040 
	C151.777954,368.332886 153.826477,371.400574 153.926254,373.668762 
	C154.371017,383.778320 154.119354,393.918518 154.119354,405.108185 
	C157.801758,401.473145 160.800720,398.528046 163.782135,395.565277 
	C166.617538,392.747620 169.090897,389.360138 172.394974,387.300507 
	C174.229736,386.156708 177.941940,386.349976 179.903091,387.493073 
	C182.557053,389.039978 182.029175,392.227112 180.021149,394.470886 
	C176.919067,397.937164 173.579880,401.191193 170.001923,404.885590 
	C174.591263,412.198517 179.589966,419.625671 183.916214,427.425812 
	C185.034637,429.442261 184.783051,432.984283 183.744125,435.144104 
	C183.121964,436.437531 179.630188,437.105255 177.657272,436.756897 
	C176.062515,436.475342 174.498856,434.456055 173.461044,432.857300 
	C169.387054,426.581329 165.526657,420.166687 161.449722,413.581909 
	C156.786285,416.473907 153.100311,419.626587 154.169647,425.838348 
	C154.474670,427.610229 154.281570,429.510620 154.061752,431.321106 
	C153.622360,434.939911 151.572784,437.125824 147.827621,437.172974 
	C143.941116,437.221893 142.001602,434.930298 141.921539,431.226318 
	C141.755966,423.564484 141.679153,415.898376 141.722763,408.234924 
	C141.792908,395.908356 141.990143,383.582520 142.286407,370.854004 
z"/>
<path fill="#FBFCFC" opacity="1.000000" stroke="none" 
	d="
M218.735016,414.999146 
	C218.735504,407.844513 218.656540,401.188293 218.768494,394.535339 
	C218.828812,390.951447 218.289383,386.806763 223.381989,385.921997 
	C228.483688,385.035645 230.053543,388.422394 230.951950,393.436676 
	C235.842682,388.032806 241.322556,385.273956 248.196091,385.708618 
	C257.176361,386.276581 263.387268,391.780334 263.764587,400.701599 
	C264.179047,410.500641 264.013947,420.328064 263.940369,430.141907 
	C263.911407,434.002380 262.434143,437.050781 257.920471,437.193817 
	C253.411682,437.336670 251.637756,434.411285 251.492142,430.544708 
	C251.185608,422.405060 251.325500,414.249115 251.055313,406.107391 
	C250.804596,398.552582 248.643204,395.833984 243.235352,395.577301 
	C237.201431,395.290985 232.487869,399.284637 231.996735,405.790161 
	C231.484161,412.579651 231.564316,419.413330 231.362015,426.227051 
	C231.302841,428.219849 231.367874,430.247009 231.016769,432.193634 
	C230.397873,435.624878 227.993195,437.914490 224.718170,436.994873 
	C222.509354,436.374603 219.547867,433.915192 219.238998,431.920013 
	C218.407562,426.549011 218.817734,420.985840 218.735016,414.999146 
z"/>
<path fill="#FAFAFB" opacity="1.000000" stroke="none" 
	d="
M195.366547,435.776367 
	C194.398880,433.490204 193.201019,431.483643 193.170334,429.459351 
	C192.988785,417.485535 192.942230,405.504761 193.197174,393.533691 
	C193.245178,391.279327 194.274597,388.431183 195.867310,386.949036 
	C199.463364,383.602722 205.544006,386.300598 205.699997,391.569122 
	C206.088638,404.696564 206.082275,417.849609 205.726990,430.978607 
	C205.575165,436.588806 201.490234,438.322662 195.366547,435.776367 
z"/>
<path fill="#F5F6F7" opacity="1.000000" stroke="none" 
	d="
M193.376892,375.376709 
	C193.376053,369.686035 196.417542,366.200592 200.490402,367.529968 
	C202.601654,368.219086 205.403397,370.739044 205.514420,372.575684 
	C205.642960,374.701843 203.664597,377.893127 201.691635,378.997406 
	C198.410599,380.833771 195.288177,379.260620 193.376892,375.376709 
z"/>
<path fill="#3E5059" opacity="1.000000" stroke="none" 
	d="
M116.061127,282.871490 
	C114.073395,282.871460 112.574409,282.876831 111.075470,282.870636 
	C105.192650,282.846313 103.838799,281.686279 103.818542,276.660797 
	C103.798103,271.589172 105.183006,270.301178 110.993813,270.293610 
	C131.313126,270.267120 151.632492,270.267975 171.951797,270.294830 
	C176.938095,270.301422 178.857971,272.105743 178.925720,276.606812 
	C178.993408,281.104401 177.123596,282.854187 172.011642,282.861237 
	C153.524414,282.886719 135.037140,282.871460 116.061127,282.871490 
z"/>
<path fill="#3C4E57" opacity="1.000000" stroke="none" 
	d="
M112.277145,303.969482 
	C106.886124,304.667664 105.168137,301.866760 105.154213,297.585419 
	C105.139908,293.186707 107.514801,291.743927 111.883583,291.781769 
	C132.500214,291.960327 153.120026,291.956299 173.736771,291.785370 
	C178.138245,291.748840 180.289795,293.118500 180.232529,297.672943 
	C180.170990,302.567139 178.860794,303.957031 173.598450,303.961884 
	C153.312836,303.980591 133.027191,303.969543 112.277145,303.969482 
z"/>
<path fill="#336DE5" opacity="1.000000" stroke="none" 
	d="
M394.118347,302.232483 
	C399.420563,279.312561 404.690704,256.814636 409.853424,234.292084 
	C411.181610,228.497818 414.467133,224.494690 419.771271,221.966599 
	C446.646576,209.157135 473.546082,196.397476 500.352051,183.444351 
	C506.576019,180.436798 512.252808,180.598724 518.450623,183.597107 
	C544.651001,196.272186 570.935608,208.775223 597.269958,221.170044 
	C603.829956,224.257629 607.528870,228.962265 609.120239,236.072784 
	C615.438110,264.302582 622.010864,292.475800 628.601501,320.643707 
	C630.071533,326.926697 629.100281,332.369141 624.981140,337.466705 
	C606.246155,360.652039 587.629578,383.932983 568.958069,407.169617 
	C565.306335,411.714172 560.636230,414.122192 554.696533,414.112122 
	C524.212158,414.060516 493.727570,414.035889 463.243225,414.080658 
	C456.755493,414.090179 452.359436,410.701019 448.554169,405.958374 
	C433.025940,386.604584 417.501190,367.247742 401.891968,347.959320 
	C385.987488,328.305939 387.318298,331.516113 392.884125,308.007355 
	C393.305389,306.228027 393.660461,304.432983 394.118347,302.232483 
M469.044403,250.551331 
	C468.156189,251.306778 467.264618,252.058350 466.380310,252.818329 
	C461.096710,257.359161 458.612854,257.234589 453.438263,252.148697 
	C451.418854,250.163895 449.479980,248.091812 447.387299,246.188263 
	C444.688721,243.733582 441.462280,242.163696 438.748047,245.635941 
	C436.059143,249.075760 438.264374,251.879044 441.308533,253.927231 
	C444.205353,255.876282 447.325562,257.508789 450.131042,259.574493 
	C454.594513,262.860992 455.026917,265.275238 452.460175,270.006866 
	C446.448822,281.088318 443.524200,292.901062 444.297363,305.519348 
	C444.633698,311.008240 443.346802,313.026581 437.650360,314.099945 
	C434.067657,314.775085 430.380890,314.885651 426.784576,315.504242 
	C423.372833,316.091125 420.391449,317.813965 421.314850,321.769928 
	C422.204742,325.582397 425.392700,326.225067 428.889618,325.124207 
	C432.530945,323.977814 436.109528,322.606903 439.793854,321.629181 
	C444.011871,320.509796 447.227875,321.251862 449.117035,326.049622 
	C453.810211,337.968750 461.662415,347.534119 472.127533,354.933105 
	C476.478180,358.009064 477.104553,360.359161 474.432892,365.225525 
	C472.674713,368.428009 470.550690,371.427399 468.693054,374.578186 
	C466.782013,377.819458 466.322327,381.171295 470.291595,383.021149 
	C474.053741,384.774414 476.251404,382.170746 477.557281,379.001587 
	C479.011993,375.471130 479.927338,371.704498 481.539215,368.256561 
	C483.230194,364.639404 485.514618,362.198303 490.446808,363.797760 
	C502.983826,367.863281 515.749207,367.764801 528.288940,363.830170 
	C533.008911,362.349152 535.213806,364.608276 536.865295,368.010651 
	C538.527039,371.434021 539.527283,375.172363 540.951416,378.718842 
	C542.586609,382.790741 545.769714,384.540039 548.586060,382.792755 
	C552.086487,380.621033 551.514099,377.497070 549.823242,374.497528 
	C547.946594,371.168457 545.590454,368.090790 543.914673,364.672485 
	C542.109985,360.991302 542.144897,357.779205 546.353271,355.004517 
	C557.065002,347.942047 564.565674,338.091370 569.497070,326.266296 
	C571.578308,321.275604 574.182861,320.029694 579.501526,321.656799 
	C582.677002,322.628235 585.739075,323.979218 588.927795,324.896301 
	C592.307800,325.868378 595.760803,326.166595 597.075439,321.809143 
	C598.086243,318.458801 595.464111,315.755615 590.839355,315.151184 
	C587.378052,314.698792 583.850830,314.614990 580.443176,313.922791 
	C576.198242,313.060516 573.518494,311.011200 573.977417,305.784851 
	C575.099731,293.001465 572.274048,280.899689 565.744812,269.878357 
	C563.061462,265.348907 564.619934,262.369019 568.005188,259.755188 
	C570.889771,257.527985 574.212463,255.877914 577.220886,253.798325 
	C580.171143,251.758987 582.637390,248.991379 579.794434,245.537048 
	C577.123901,242.292175 573.816895,243.492813 571.084167,246.066208 
	C568.418945,248.575943 566.022095,251.401917 563.185791,253.690414 
	C559.893127,256.347137 556.648682,257.336090 552.769531,253.706741 
	C543.295471,244.842972 531.879150,239.484619 519.071838,237.556366 
	C514.281616,236.835129 513.109863,233.934647 513.093628,230.148544 
	C513.077393,226.345169 513.825195,222.544312 514.096985,218.732285 
	C514.357727,215.075577 513.636780,211.856552 509.076202,211.736359 
	C505.609589,211.645004 503.773041,214.902283 504.318085,219.510864 
	C504.727966,222.977020 505.194458,226.456024 505.269135,229.937180 
	C505.357117,234.038544 504.236664,236.991669 499.129517,237.607056 
	C488.175049,238.927002 478.389740,243.428741 469.044403,250.551331 
z"/>
<path fill="#3E5059" opacity="1.000000" stroke="none" 
	d="
M286.974579,415.500977 
	C287.646332,410.391266 287.391083,405.286774 289.263000,401.143250 
	C292.833191,393.240662 303.101959,393.020813 307.820251,400.363373 
	C311.778381,406.522949 311.863251,413.250061 309.349518,419.934662 
	C307.554504,424.708130 303.911163,427.402283 298.664734,427.358948 
	C293.413666,427.315613 290.022064,424.465637 288.089935,419.753052 
	C287.591949,418.538422 287.361542,417.214111 286.974579,415.500977 
z"/>
<path fill="#FBFCFE" opacity="1.000000" stroke="none" 
	d="
M469.325653,250.323822 
	C478.389740,243.428741 488.175049,238.927002 499.129517,237.607056 
	C504.236664,236.991669 505.357117,234.038544 505.269135,229.937180 
	C505.194458,226.456024 504.727966,222.977020 504.318085,219.510864 
	C503.773041,214.902283 505.609589,211.645004 509.076202,211.736359 
	C513.636780,211.856552 514.357727,215.075577 514.096985,218.732285 
	C513.825195,222.544312 513.077393,226.345169 513.093628,230.148544 
	C513.109863,233.934647 514.281616,236.835129 519.071838,237.556366 
	C531.879150,239.484619 543.295471,244.842972 552.769531,253.706741 
	C556.648682,257.336090 559.893127,256.347137 563.185791,253.690414 
	C566.022095,251.401917 568.418945,248.575943 571.084167,246.066208 
	C573.816895,243.492813 577.123901,242.292175 579.794434,245.537048 
	C582.637390,248.991379 580.171143,251.758987 577.220886,253.798325 
	C574.212463,255.877914 570.889771,257.527985 568.005188,259.755188 
	C564.619934,262.369019 563.061462,265.348907 565.744812,269.878357 
	C572.274048,280.899689 575.099731,293.001465 573.977417,305.784851 
	C573.518494,311.011200 576.198242,313.060516 580.443176,313.922791 
	C583.850830,314.614990 587.378052,314.698792 590.839355,315.151184 
	C595.464111,315.755615 598.086243,318.458801 597.075439,321.809143 
	C595.760803,326.166595 592.307800,325.868378 588.927795,324.896301 
	C585.739075,323.979218 582.677002,322.628235 579.501526,321.656799 
	C574.182861,320.029694 571.578308,321.275604 569.497070,326.266296 
	C564.565674,338.091370 557.065002,347.942047 546.353271,355.004517 
	C542.144897,357.779205 542.109985,360.991302 543.914673,364.672485 
	C545.590454,368.090790 547.946594,371.168457 549.823242,374.497528 
	C551.514099,377.497070 552.086487,380.621033 548.586060,382.792755 
	C545.769714,384.540039 542.586609,382.790741 540.951416,378.718842 
	C539.527283,375.172363 538.527039,371.434021 536.865295,368.010651 
	C535.213806,364.608276 533.008911,362.349152 528.288940,363.830170 
	C515.749207,367.764801 502.983826,367.863281 490.446808,363.797760 
	C485.514618,362.198303 483.230194,364.639404 481.539215,368.256561 
	C479.927338,371.704498 479.011993,375.471130 477.557281,379.001587 
	C476.251404,382.170746 474.053741,384.774414 470.291595,383.021149 
	C466.322327,381.171295 466.782013,377.819458 468.693054,374.578186 
	C470.550690,371.427399 472.674713,368.428009 474.432892,365.225525 
	C477.104553,360.359161 476.478180,358.009064 472.127533,354.933105 
	C461.662415,347.534119 453.810211,337.968750 449.117035,326.049622 
	C447.227875,321.251862 444.011871,320.509796 439.793854,321.629181 
	C436.109528,322.606903 432.530945,323.977814 428.889618,325.124207 
	C425.392700,326.225067 422.204742,325.582397 421.314850,321.769928 
	C420.391449,317.813965 423.372833,316.091125 426.784576,315.504242 
	C430.380890,314.885651 434.067657,314.775085 437.650360,314.099945 
	C443.346802,313.026581 444.633698,311.008240 444.297363,305.519348 
	C443.524200,292.901062 446.448822,281.088318 452.460175,270.006866 
	C455.026917,265.275238 454.594513,262.860992 450.131042,259.574493 
	C447.325562,257.508789 444.205353,255.876282 441.308533,253.927231 
	C438.264374,251.879044 436.059143,249.075760 438.748047,245.635941 
	C441.462280,242.163696 444.688721,243.733582 447.387299,246.188263 
	C449.479980,248.091812 451.418854,250.163895 453.438263,252.148697 
	C458.612854,257.234589 461.096710,257.359161 466.380310,252.818329 
	C467.264618,252.058350 468.156189,251.306778 469.325653,250.323822 
M465.425476,304.910004 
	C470.978271,303.243195 476.580627,301.722687 482.067596,299.861786 
	C486.215576,298.455017 487.536835,295.433258 484.855988,292.767609 
	C478.589661,286.536896 471.853455,280.778717 464.961273,274.514435 
	C459.290527,285.151794 456.292084,295.349548 457.951233,306.915497 
	C460.531830,306.197937 462.583893,305.627380 465.425476,304.910004 
M528.034119,316.476410 
	C527.769104,317.875092 526.903015,319.503113 527.335266,320.635712 
	C530.458374,328.820038 533.844055,336.904175 537.296692,345.389038 
	C547.088196,338.628571 554.025757,330.384125 557.973267,319.256714 
	C550.078918,317.958344 542.726318,316.638092 535.333923,315.601990 
	C533.158936,315.297150 530.871155,315.797363 528.034119,316.476410 
M561.053528,303.121582 
	C561.093018,293.130707 558.979980,283.728638 553.233032,274.617371 
	C546.537048,280.686157 539.902893,286.424408 533.622742,292.527039 
	C531.144714,294.935120 532.248535,298.472321 535.822266,299.621887 
	C543.991577,302.249512 552.291077,304.472137 560.736877,306.916962 
	C560.863220,305.628296 560.943420,304.810425 561.053528,303.121582 
M491.002380,277.536163 
	C497.417267,282.015900 500.680786,281.639313 501.332703,275.911926 
	C502.267792,267.697083 502.429504,259.394257 502.951630,250.621445 
	C491.086243,251.825195 481.591888,256.514435 473.097870,264.688141 
	C479.099609,268.985657 484.763580,273.041321 491.002380,277.536163 
M471.081451,317.606293 
	C467.747314,318.203186 464.413177,318.800079 460.664886,319.471100 
	C464.955811,330.389404 471.299652,338.698425 481.269989,345.055542 
	C484.643616,336.907898 488.037354,329.372284 490.864624,321.629791 
	C492.499756,317.152069 489.974335,314.516296 485.174683,315.160034 
	C480.734589,315.755585 476.332092,316.631317 471.081451,317.606293 
M524.119019,252.139130 
	C521.494080,251.611893 518.869141,251.084671 515.616516,250.431366 
	C516.116516,259.568207 516.442871,267.675598 517.051636,275.761749 
	C517.360229,279.859955 520.698608,281.802429 524.122253,279.587280 
	C531.284058,274.953461 538.135254,269.839447 545.114014,264.922638 
	C545.200806,264.302216 545.287598,263.681793 545.374329,263.061371 
	C538.545044,259.508850 531.715698,255.956329 524.119019,252.139130 
M493.632538,349.164429 
	C493.772217,349.818024 493.760834,350.957642 494.073456,351.054871 
	C504.475830,354.288025 514.836121,354.207947 525.755737,350.749939 
	C521.738831,343.399628 518.082336,336.528931 514.252258,329.756378 
	C511.116028,324.210693 507.504883,324.212463 504.342346,329.748627 
	C500.800049,335.949646 497.428772,342.248291 493.632538,349.164429 
M516.079590,307.395508 
	C516.437622,306.312317 516.873840,305.247925 517.139832,304.142578 
	C518.194153,299.761688 515.533264,294.329712 511.924408,293.400452 
	C507.683655,292.308533 502.015503,295.317322 500.681091,299.368683 
	C499.536224,302.844543 502.408142,307.401886 506.336517,309.638397 
	C510.155457,311.812531 512.536987,308.901978 516.079590,307.395508 
z"/>
<path fill="#376FE6" opacity="1.000000" stroke="none" 
	d="
M465.030701,304.983398 
	C462.583893,305.627380 460.531830,306.197937 457.951233,306.915497 
	C456.292084,295.349548 459.290527,285.151794 464.961273,274.514435 
	C471.853455,280.778717 478.589661,286.536896 484.855988,292.767609 
	C487.536835,295.433258 486.215576,298.455017 482.067596,299.861786 
	C476.580627,301.722687 470.978271,303.243195 465.030701,304.983398 
z"/>
<path fill="#366FE6" opacity="1.000000" stroke="none" 
	d="
M528.334595,316.202515 
	C530.871155,315.797363 533.158936,315.297150 535.333923,315.601990 
	C542.726318,316.638092 550.078918,317.958344 557.973267,319.256714 
	C554.025757,330.384125 547.088196,338.628571 537.296692,345.389038 
	C533.844055,336.904175 530.458374,328.820038 527.335266,320.635712 
	C526.903015,319.503113 527.769104,317.875092 528.334595,316.202515 
z"/>
<path fill="#366FE6" opacity="1.000000" stroke="none" 
	d="
M561.038574,303.557068 
	C560.943420,304.810425 560.863220,305.628296 560.736877,306.916962 
	C552.291077,304.472137 543.991577,302.249512 535.822266,299.621887 
	C532.248535,298.472321 531.144714,294.935120 533.622742,292.527039 
	C539.902893,286.424408 546.537048,280.686157 553.233032,274.617371 
	C558.979980,283.728638 561.093018,293.130707 561.038574,303.557068 
z"/>
<path fill="#376FE6" opacity="1.000000" stroke="none" 
	d="
M490.714966,277.316559 
	C484.763580,273.041321 479.099609,268.985657 473.097870,264.688141 
	C481.591888,256.514435 491.086243,251.825195 502.951630,250.621445 
	C502.429504,259.394257 502.267792,267.697083 501.332703,275.911926 
	C500.680786,281.639313 497.417267,282.015900 490.714966,277.316559 
z"/>
<path fill="#366FE6" opacity="1.000000" stroke="none" 
	d="
M471.497253,317.494995 
	C476.332092,316.631317 480.734589,315.755585 485.174683,315.160034 
	C489.974335,314.516296 492.499756,317.152069 490.864624,321.629791 
	C488.037354,329.372284 484.643616,336.907898 481.269989,345.055542 
	C471.299652,338.698425 464.955811,330.389404 460.664886,319.471100 
	C464.413177,318.800079 467.747314,318.203186 471.497253,317.494995 
z"/>
<path fill="#366FE6" opacity="1.000000" stroke="none" 
	d="
M524.502686,252.271469 
	C531.715698,255.956329 538.545044,259.508850 545.374329,263.061371 
	C545.287598,263.681793 545.200806,264.302216 545.114014,264.922638 
	C538.135254,269.839447 531.284058,274.953461 524.122253,279.587280 
	C520.698608,281.802429 517.360229,279.859955 517.051636,275.761749 
	C516.442871,267.675598 516.116516,259.568207 515.616516,250.431366 
	C518.869141,251.084671 521.494080,251.611893 524.502686,252.271469 
z"/>
<path fill="#366FE5" opacity="1.000000" stroke="none" 
	d="
M493.807800,348.834442 
	C497.428772,342.248291 500.800049,335.949646 504.342346,329.748627 
	C507.504883,324.212463 511.116028,324.210693 514.252258,329.756378 
	C518.082336,336.528931 521.738831,343.399628 525.755737,350.749939 
	C514.836121,354.207947 504.475830,354.288025 494.073456,351.054871 
	C493.760834,350.957642 493.772217,349.818024 493.807800,348.834442 
z"/>
<path fill="#3A72E6" opacity="1.000000" stroke="none" 
	d="
M515.783325,307.639404 
	C512.536987,308.901978 510.155457,311.812531 506.336517,309.638397 
	C502.408142,307.401886 499.536224,302.844543 500.681091,299.368683 
	C502.015503,295.317322 507.683655,292.308533 511.924408,293.400452 
	C515.533264,294.329712 518.194153,299.761688 517.139832,304.142578 
	C516.873840,305.247925 516.437622,306.312317 515.783325,307.639404 
z"/>
</svg>